<svg width="111" height="104" viewBox="0 0 111 104" fill="none" xmlns="http://www.w3.org/2000/svg">
<path d="M0 0H91C102.046 0 111 8.95431 111 20V104C111 92.9543 102.046 84 91 84H47C35.9543 84 27 75.0457 27 64V20C27 8.9543 18.0457 0 7 0H0Z" fill="white"/>
<rect x="38" width="73" height="73" rx="15" fill="#4E4E51"/>
<g clip-path="url(#clip0_4_551)">
<path d="M101.362 30.8203H96.4348C95.5317 30.8203 94.7968 31.5551 94.7968 32.4583V32.4785H89.4396C89.348 32.4785 89.2661 32.4172 89.2402 32.3294L87.1652 25.2895C86.7205 23.7805 85.311 22.7266 83.7379 22.7266H66.2621C64.689 22.7266 63.2795 23.7805 62.8348 25.2895L62.3722 26.859C62.2441 27.2935 62.4926 27.7496 62.9272 27.8777C63.3611 28.006 63.8178 27.7574 63.9459 27.3227L64.4085 25.7534C64.6491 24.9372 65.4113 24.3672 66.2621 24.3672H68.755V49.6328H66.2621C65.4113 49.6328 64.649 49.0629 64.4085 48.2466L62.3335 41.2067C62.1034 40.4261 61.3742 39.8808 60.5604 39.8808H55.2031V34.119H60.5603C61.3741 34.119 62.1033 33.5737 62.3334 32.793L62.8599 31.0066C62.988 30.572 62.7396 30.1159 62.305 29.9879C61.8707 29.8596 61.4143 30.1082 61.2862 30.5427L60.7597 32.3291C60.7338 32.417 60.6519 32.4783 60.5603 32.4783H55.2031V32.4581C55.2031 31.555 54.4683 30.8201 53.5651 30.8201H48.638C47.7348 30.8203 47 31.5551 47 32.4583V41.5418C47 42.4449 47.7348 43.1798 48.638 43.1798H53.5652C54.4683 43.1798 55.2032 42.445 55.2032 41.5418V41.5216H60.5604C60.652 41.5216 60.7339 41.5829 60.7598 41.6706L62.8348 48.7105C63.2795 50.2195 64.689 51.2734 66.2621 51.2734H73.9112C74.3642 51.2734 74.7315 50.9062 74.7315 50.4531C74.7315 50.0001 74.3642 49.6328 73.9112 49.6328H70.3956V24.3672H79.6045V49.6328H77.5862C77.1331 49.6328 76.7659 50.0001 76.7659 50.4531C76.7659 50.9062 77.1331 51.2734 77.5862 51.2734H83.738C85.3111 51.2734 86.7206 50.2195 87.1653 48.7105L89.2403 41.6706C89.2662 41.5828 89.3481 41.5215 89.4397 41.5215H94.7969V41.5417C94.7969 42.4448 95.5317 43.1797 96.4349 43.1797H101.362C102.265 43.1797 103 42.4449 103 41.5417V32.4582C103 31.5551 102.265 30.8203 101.362 30.8203ZM48.6406 41.5417L48.638 32.4609L53.5625 32.4583L53.5628 33.2927C53.5628 33.2948 53.5625 33.2968 53.5625 33.2989V40.7014C53.5625 40.7219 53.5641 40.7422 53.5656 40.7623L53.5659 41.5392L48.6406 41.5417ZM89.4397 39.8809C88.6259 39.8809 87.8967 40.4262 87.6666 41.2068L85.5917 48.2466C85.351 49.0627 84.5888 49.6328 83.738 49.6328H81.2451V24.3672H83.738C84.5888 24.3672 85.3511 24.9371 85.5917 25.7534L87.6666 32.7932C87.8967 33.5738 88.6259 34.1191 89.4397 34.1191H94.7969V39.8809H89.4397ZM96.4375 41.5417L96.4373 40.7061C96.4373 40.7044 96.4375 40.7029 96.4375 40.7013V33.2987C96.4375 33.2825 96.436 33.2665 96.4351 33.2504L96.4349 32.4609L101.359 32.4583L101.363 41.5391L96.4375 41.5417Z" fill="#EDFF4F"/>
</g>
<defs>
<clipPath id="clip0_4_551">
<rect width="56" height="56" fill="white" transform="translate(47 9)"/>
</clipPath>
</defs>
</svg>
