<svg width="111" height="104" viewBox="0 0 111 104" fill="none" xmlns="http://www.w3.org/2000/svg">
<path d="M0 0H91C102.046 0 111 8.95431 111 20V104C111 92.9543 102.046 84 91 84H47C35.9543 84 27 75.0457 27 64V20C27 8.9543 18.0457 0 7 0H0Z" fill="white"/>
<rect x="38" width="73" height="73" rx="15" fill="#4E4E51"/>
<g clip-path="url(#clip0_4_549)">
<path d="M88.6266 46.0435L86.774 40.4856C86.6793 40.2018 86.4139 40.0106 86.1149 40.0106H76.8517C76.5526 40.0106 76.2871 40.2019 76.1927 40.4856L74.9991 44.0662L73.8055 40.4856C73.7109 40.2018 73.4454 40.0106 73.1464 40.0106H63.8833C63.5842 40.0106 63.3187 40.2019 63.2243 40.4856L61.3716 46.0435C61.301 46.2553 61.3365 46.4882 61.4671 46.6694C61.5976 46.8505 61.8073 46.958 62.0307 46.958H87.9676C88.1909 46.958 88.4006 46.8506 88.5311 46.6695C88.6617 46.4883 88.6973 46.2554 88.6266 46.0435ZM62.9945 45.5685L64.3839 41.4001H72.6456L74.035 45.5685H62.9945ZM75.9629 45.5685L77.3524 41.4001H85.6141L87.0035 45.5685H75.9629Z" fill="#EDFF4F"/>
<path d="M82.1428 37.7066L80.2901 32.1487C80.1955 31.8649 79.93 31.6737 79.6311 31.6737H70.3679C70.0687 31.6737 69.8033 31.865 69.7088 32.1487L67.8562 37.7066C67.7348 38.0705 67.9314 38.4641 68.2955 38.5854C68.3684 38.6096 68.4425 38.6212 68.5153 38.6212C68.8063 38.6212 69.0773 38.4372 69.1743 38.146L70.8685 33.0631H79.1302L80.5197 37.2315H72.2204C71.8366 37.2315 71.5257 37.5425 71.5257 37.9263C71.5257 38.3101 71.8366 38.621 72.2204 38.621H81.4835C81.7069 38.621 81.9166 38.5136 82.0471 38.3325C82.1778 38.1514 82.2134 37.9184 82.1428 37.7066Z" fill="#EDFF4F"/>
<path d="M95.1125 54.3802L93.2599 48.8223C93.1653 48.5385 92.8999 48.3473 92.6009 48.3473H83.3377C83.0387 48.3473 82.7731 48.5386 82.6786 48.8223L81.485 52.4029L80.2915 48.8224C80.1968 48.5386 79.9314 48.3474 79.6324 48.3474H70.3693C70.0701 48.3474 69.8047 48.5387 69.7102 48.8224L68.5166 52.4029L67.3231 48.8224C67.2284 48.5386 66.963 48.3474 66.664 48.3474H57.4009C57.1017 48.3474 56.8363 48.5387 56.7418 48.8224L54.8892 54.3803C54.8186 54.5921 54.854 54.8251 54.9847 55.0062C55.1152 55.1872 55.3249 55.2947 55.5482 55.2947H90.7482C91.132 55.2947 91.443 54.9838 91.443 54.6C91.443 54.2162 91.132 53.9053 90.7482 53.9053H82.4489L83.8384 49.7369H92.1L93.7943 54.8197C93.8914 55.1108 94.1625 55.2949 94.4533 55.2949C94.5261 55.2949 94.6002 55.2833 94.6731 55.2591C95.0372 55.1376 95.2338 54.7441 95.1125 54.3802ZM56.5121 53.9053L57.9016 49.7369H66.1632L67.5527 53.9053H56.5121ZM69.4805 53.9053L70.87 49.7369H79.1316L80.5211 53.9053H69.4805Z" fill="#EDFF4F"/>
<path d="M60.179 40.0106H53.6947C53.3109 40.0106 53 40.3216 53 40.7053C53 41.0891 53.311 41.4001 53.6947 41.4001H60.179C60.5628 41.4001 60.8737 41.089 60.8737 40.7053C60.8737 40.3215 60.5628 40.0106 60.179 40.0106Z" fill="#EDFF4F"/>
<path d="M62.5111 32.693L56.8957 29.451C56.5631 29.2592 56.1384 29.3728 55.9467 29.7052C55.7549 30.0374 55.8688 30.4624 56.201 30.6543L61.8164 33.8963C61.9259 33.9595 62.0452 33.9895 62.1631 33.9895C62.4032 33.9895 62.6367 33.8649 62.7654 33.642C62.9572 33.3098 62.8433 32.8849 62.5111 32.693Z" fill="#EDFF4F"/>
<path d="M68.1909 27.5224L64.9488 21.907C64.7569 21.5748 64.3319 21.4609 63.9998 21.6527C63.6676 21.8445 63.5537 22.2695 63.7455 22.6017L66.9876 28.2172C67.1163 28.44 67.3498 28.5646 67.5898 28.5646C67.7077 28.5646 67.8273 28.5346 67.9366 28.4714C68.2689 28.2796 68.3828 27.8548 68.1909 27.5224Z" fill="#EDFF4F"/>
<path d="M74.9994 18.7052C74.6156 18.7052 74.3047 19.0161 74.3047 19.3999V25.8842C74.3047 26.268 74.6157 26.5789 74.9994 26.5789C75.3831 26.5789 75.6941 26.2679 75.6941 25.8842V19.3999C75.6941 19.0161 75.3832 18.7052 74.9994 18.7052Z" fill="#EDFF4F"/>
<path d="M85.9991 21.6527C85.6666 21.4608 85.2418 21.5745 85.0501 21.9069L81.808 27.5224C81.6162 27.8546 81.73 28.2796 82.0623 28.4714C82.1718 28.5345 82.2913 28.5645 82.4091 28.5645C82.6492 28.5645 82.8827 28.4399 83.0113 28.2171L86.2534 22.6017C86.4452 22.2694 86.3314 21.8446 85.9991 21.6527Z" fill="#EDFF4F"/>
<path d="M94.0525 29.7053C93.8607 29.373 93.4356 29.2594 93.1035 29.451L87.4881 32.6931C87.1559 32.8849 87.0419 33.3099 87.2338 33.6421C87.3626 33.8649 87.5961 33.9896 87.8361 33.9896C87.954 33.9896 88.0735 33.9596 88.1828 33.8964L93.7983 30.6543C94.1306 30.4624 94.2445 30.0375 94.0525 29.7053Z" fill="#EDFF4F"/>
<path d="M96.3059 40.0106H89.8217C89.4379 40.0106 89.127 40.3216 89.127 40.7053C89.127 41.0891 89.4379 41.4001 89.8217 41.4001H96.3059C96.6897 41.4001 97.0006 41.0891 97.0006 40.7053C97.0006 40.3215 96.6897 40.0106 96.3059 40.0106Z" fill="#EDFF4F"/>
</g>
<defs>
<clipPath id="clip0_4_549">
<rect width="44" height="44" fill="white" transform="translate(53 15)"/>
</clipPath>
</defs>
</svg>
