<svg width="111" height="104" viewBox="0 0 111 104" fill="none" xmlns="http://www.w3.org/2000/svg">
<path d="M0 0H91C102.046 0 111 8.95431 111 20V104C111 92.9543 102.046 84 91 84H47C35.9543 84 27 75.0457 27 64V20C27 8.9543 18.0457 0 7 0H0Z" fill="white"/>
<rect x="38" width="73" height="73" rx="15" fill="#4E4E51"/>
<g clip-path="url(#clip0_4_548)">
<path d="M65.5091 41.263C65.8787 41.8882 66.5601 42.2766 67.2877 42.2766C67.6554 42.2766 68.0185 42.1769 68.3381 41.9881C69.3173 41.4081 69.6423 40.1392 69.0628 39.1597C68.601 38.3792 68.3568 37.4705 68.3568 36.5316C68.3568 35.5053 68.6584 34.5096 69.2014 33.6899C69.4797 33.941 69.8467 34.0953 70.2501 34.0953H73.3088V39.8481C73.3088 40.9866 74.235 41.9128 75.3735 41.9128C76.512 41.9128 77.4383 40.9866 77.4383 39.8481V34.0953H80.4963C80.9 34.0953 81.2673 33.9409 81.5457 33.6898C82.0888 34.5094 82.3904 35.5052 82.3904 36.5316C82.3904 37.4709 82.1461 38.3795 81.6833 39.1602C81.1045 40.1404 81.4303 41.4091 82.4096 41.9883C83.4133 42.5817 84.6707 42.2197 85.2378 41.2634C86.0763 39.8467 86.5196 38.2104 86.5196 36.5316C86.5196 34.8222 86.0586 33.1592 85.1865 31.7226C84.4061 30.437 83.3324 29.3872 82.0663 28.6643V28.4423C82.0663 27.5771 81.362 26.8731 80.4963 26.8731H77.5472V16.0742C77.5472 15.4819 77.0654 15 76.473 15H74.2739C73.6815 15 73.1996 15.4819 73.1996 16.0742V18.9347C73.1996 19.2908 73.4881 19.5793 73.8442 19.5793C74.2002 19.5793 74.4887 19.2908 74.4887 18.9347V16.2891H76.2582V26.8731H74.4887V21.9425C74.4887 21.5865 74.2002 21.298 73.8442 21.298C73.4881 21.298 73.1996 21.5865 73.1996 21.9425V26.8731H70.25C69.3847 26.8731 68.6807 27.577 68.6807 28.4423V28.6642C67.4142 29.3871 66.3404 30.437 65.5599 31.7225C64.6876 33.1591 64.2266 34.8221 64.2266 36.5316C64.2266 38.2094 64.6701 39.8456 65.5091 41.263ZM75.3734 40.6237C74.9456 40.6237 74.5978 40.2758 74.5978 39.8481V31.4282C74.5978 31.0004 74.9457 30.6525 75.3734 30.6525C75.8012 30.6525 76.1491 31.0004 76.1491 31.4282V39.8481C76.1491 40.2759 75.8012 40.6237 75.3734 40.6237ZM85.2305 36.5316C85.2305 37.9795 84.8494 39.3886 84.1287 40.6062C83.9052 40.9832 83.4296 41.0937 83.0657 40.8787C82.6979 40.6611 82.5757 40.1842 82.7928 39.8165C83.3728 38.8378 83.6794 37.7019 83.6794 36.5316C83.6794 34.9396 83.0942 33.4002 82.0663 32.2636V30.1961C84.0167 31.6091 85.2305 33.9881 85.2305 36.5316ZM69.9698 28.4423C69.9698 28.2878 70.0955 28.1622 70.25 28.1622H80.4963C80.6513 28.1622 80.7774 28.2878 80.7774 28.4423V32.5252C80.7774 32.6803 80.6513 32.8062 80.4963 32.8062H77.4382V31.4282C77.4382 30.2897 76.5119 29.3634 75.3734 29.3634C74.2349 29.3634 73.3087 30.2897 73.3087 31.4282V32.8062H70.25C70.0955 32.8062 69.9698 32.6802 69.9698 32.5252V28.4423ZM68.6807 30.1959V32.2636C67.6529 33.4002 67.0677 34.9396 67.0677 36.5316C67.0677 37.7012 67.3739 38.837 67.9532 39.8161C68.1711 40.1842 68.049 40.661 67.6817 40.8785C67.5611 40.9498 67.4249 40.9875 67.2877 40.9875C67.0138 40.9875 66.7574 40.8417 66.6185 40.6067C65.897 39.3876 65.5156 37.9785 65.5156 36.5316C65.5156 33.9879 66.7299 31.6087 68.6807 30.1959Z" fill="#EDFF4F"/>
<path d="M93.0029 57.7109H91.3587V54.5973C91.3587 53.5138 90.4771 52.6322 89.3935 52.6322H88.9004C88.6397 52.6322 88.3995 52.4797 88.2886 52.2437L87.9855 51.5985C87.834 51.2764 87.4499 51.1378 87.128 51.2893C86.8058 51.4407 86.6674 51.8245 86.8187 52.1467L87.1218 52.7919C87.4442 53.478 88.1424 53.9214 88.9004 53.9214H89.3935C89.7663 53.9214 90.0695 54.2245 90.0695 54.5973V57.7109H60.5516L60.8185 56.1745C60.8473 56.0083 60.9782 55.8774 61.1446 55.8488L62.445 55.6246C62.8879 55.5487 63.2894 55.2936 63.5473 54.9236L65.251 52.4673C65.4468 52.1858 65.7679 52.0177 66.1096 52.0177H67.4477L67.1332 52.5623C66.8788 53.003 66.8788 53.5506 67.1332 53.9914L68.3334 56.0702C68.588 56.5109 69.0621 56.7846 69.571 56.7846H71.9714C72.4804 56.7846 72.9545 56.5108 73.209 56.0701L74.4093 53.9912C74.6635 53.5505 74.6635 53.0031 74.4092 52.5623L73.209 50.4836C73.0368 50.1852 72.7637 49.9638 72.4474 49.8515L72.8417 47.7795C72.936 47.2849 73.3697 46.9259 73.8732 46.9259H76.912C77.1795 46.9259 77.4347 47.0266 77.6301 47.2092L78.5564 48.0758L77.6034 49.0288C77.1792 49.4531 77.1792 50.1435 77.6034 50.568L78.4088 51.3733L76.6077 53.1743C76.4391 53.3431 76.3293 53.5663 76.2984 53.8026L76.0695 55.5551C76.0253 55.8929 76.1381 56.2248 76.3791 56.4657C76.5856 56.6723 76.8591 56.7847 77.1459 56.7847C77.1935 56.7847 77.2416 56.7816 77.2897 56.7753L79.042 56.5464C79.2784 56.5156 79.5017 56.4057 79.6707 56.2368L81.4715 54.4359L82.2769 55.2414C82.4892 55.4535 82.7679 55.5596 83.0465 55.5596C83.3252 55.5596 83.6039 55.4535 83.8161 55.2414L85.401 53.6565C85.8253 53.2321 85.8253 52.5416 85.401 52.1173L82.5431 49.2594L84.5714 48.6914C84.8908 48.6023 85.2248 48.755 85.3659 49.0557L85.5378 49.4209C85.6476 49.6543 85.8795 49.7912 86.1214 49.7912C86.2133 49.7912 86.3067 49.7714 86.3954 49.7297C86.7175 49.5781 86.8556 49.1942 86.7041 48.8721L86.5326 48.5075C86.1234 47.6353 85.1524 47.1905 84.2241 47.45L81.4974 48.2137L80.7276 47.4439C80.522 47.2383 80.2488 47.1252 79.958 47.1252C79.806 47.1252 79.6591 47.1568 79.5238 47.2157L78.5104 46.2677C78.0751 45.8609 77.5074 45.6369 76.9119 45.6369H73.8731C72.7515 45.6369 71.7851 46.4366 71.5754 47.5385L71.1508 49.769H69.571C69.0621 49.769 68.5879 50.0429 68.3334 50.4836L68.192 50.7287H66.9347L64.2653 46.1066C63.9586 45.5742 63.275 45.3903 62.7401 45.6975L61.1999 46.5867C60.6683 46.8949 60.4855 47.5786 60.7923 48.111L63.4779 52.762L62.4889 54.1878C62.4278 54.2756 62.3325 54.3363 62.2266 54.3544L60.926 54.5786C60.2239 54.6992 59.6703 55.2521 59.5484 55.9543L59.2433 57.7111H57.7441C57.3881 57.7111 57.0996 57.9996 57.0996 58.3556C57.0996 58.7117 57.3881 59.0002 57.7441 59.0002H93.0029C93.359 59.0002 93.6475 58.7117 93.6475 58.3556C93.6475 57.9993 93.359 57.7109 93.0029 57.7109ZM78.8075 55.2769L77.3815 55.4632L77.5678 54.0372L79.3203 52.2847L80.5599 53.5243L78.8075 55.2769ZM83.0465 54.1878C82.4334 53.5747 78.6569 49.7982 78.6569 49.7982L79.958 48.4971L84.3476 52.8867L83.0465 54.1878ZM69.571 51.0578H71.9714C72.0213 51.0578 72.0678 51.0846 72.0927 51.1279L73.2928 53.2064C73.3177 53.2497 73.3177 53.3035 73.2929 53.3466L72.0927 55.4253C72.0678 55.4685 72.0213 55.4953 71.9714 55.4953H69.571C69.5212 55.4953 69.4747 55.4685 69.4498 55.4253L68.2496 53.3466C68.2246 53.3034 68.2246 53.2497 68.2496 53.2065L69.4498 51.1279C69.4748 51.0847 69.5212 51.0578 69.571 51.0578ZM63.2349 46.8999L65.4943 50.8122C65.0258 50.9406 64.6044 51.213 64.2939 51.5972L61.9949 47.6158L63.2349 46.8999Z" fill="#EDFF4F"/>
<path d="M87.4645 24.6006C87.4731 24.6006 87.4817 24.6004 87.4904 24.6C87.8461 24.586 88.123 24.2863 88.109 23.9306L88.0248 21.7957C89.378 23.2308 90.4673 24.8681 91.2676 26.6774C92.2472 28.8919 92.7439 31.2533 92.7439 33.6958C92.7439 36.9413 91.8437 40.1051 90.1409 42.8454C89.953 43.1479 90.0459 43.5452 90.3481 43.7331C90.6494 43.9203 91.0471 43.8293 91.2357 43.5259C93.0657 40.5812 94.033 37.182 94.033 33.6958C94.033 31.0726 93.4992 28.5357 92.4465 26.1559C91.6119 24.2692 90.4857 22.5564 89.0912 21.0479L90.9197 21.12C91.2741 21.1326 91.5751 20.857 91.5891 20.5014C91.6031 20.1458 91.3261 19.846 90.9705 19.832L88.3072 19.7269C87.9659 19.7142 87.6328 19.817 87.3587 20.0121C87.3246 20.0333 87.2928 20.0587 87.2617 20.0861C87.2287 20.1151 87.1948 20.1432 87.1635 20.1745C86.8623 20.4758 86.6992 20.8927 86.716 21.3183L86.8211 23.9815C86.8346 24.3285 87.1203 24.6006 87.4645 24.6006Z" fill="#EDFF4F"/>
<path d="M60.909 42.4656L61.5421 39.8766C61.6266 39.5309 61.4149 39.182 61.0691 39.0975C60.7232 39.0128 60.3744 39.2247 60.2899 39.5705L59.8145 41.5147C59.0558 40.0088 58.5224 38.3994 58.2253 36.7155C57.1185 30.4377 59.5328 24.0693 64.5258 20.0955C64.8043 19.8739 64.8504 19.4683 64.6288 19.1899C64.4072 18.9113 64.0017 18.8652 63.7231 19.0869C58.36 23.3551 55.767 30.1958 56.9559 36.9393C57.2759 38.7536 57.8516 40.4877 58.6711 42.1103L56.8134 41.4974C56.4754 41.3858 56.111 41.5695 55.9994 41.9075C55.8879 42.2456 56.0715 42.6099 56.4095 42.7215L58.9405 43.5565C59.7883 43.8366 60.6969 43.3328 60.909 42.4656Z" fill="#EDFF4F"/>
</g>
<defs>
<clipPath id="clip0_4_548">
<rect width="44" height="44" fill="white" transform="translate(53 15)"/>
</clipPath>
</defs>
</svg>
