<svg width="111" height="104" viewBox="0 0 111 104" fill="none" xmlns="http://www.w3.org/2000/svg">
<path d="M0 0H91C102.046 0 111 8.95431 111 20V104C111 92.9543 102.046 84 91 84H47C35.9543 84 27 75.0457 27 64V20C27 8.9543 18.0457 0 7 0H0Z" fill="white"/>
<rect x="38" width="73" height="73" rx="15" fill="#4E4E51"/>
<path d="M88.675 53.054H61.3237C60.6929 53.054 60.088 52.8035 59.6419 52.3574C59.1959 51.9114 58.9453 51.3064 58.9453 50.6757V23.3243C58.9453 22.6935 59.1959 22.0886 59.6419 21.6425C60.088 21.1965 60.6929 20.9459 61.3237 20.9459H88.675C89.3058 20.9459 89.9108 21.1965 90.3568 21.6425C90.8028 22.0886 91.0534 22.6935 91.0534 23.3243V50.6757C91.0534 51.3064 90.8028 51.9114 90.3568 52.3574C89.9108 52.8035 89.3058 53.054 88.675 53.054ZM61.3237 22.1351C61.0083 22.1351 60.7058 22.2604 60.4828 22.4834C60.2598 22.7064 60.1345 23.0089 60.1345 23.3243V50.6757C60.1345 50.991 60.2598 51.2935 60.4828 51.5165C60.7058 51.7396 61.0083 51.8648 61.3237 51.8648H88.675C88.9904 51.8648 89.2929 51.7396 89.5159 51.5165C89.7389 51.2935 89.8642 50.991 89.8642 50.6757V23.3243C89.8642 23.0089 89.7389 22.7064 89.5159 22.4834C89.2929 22.2604 88.9904 22.1351 88.675 22.1351H61.3237Z" fill="#EDFF4F"/>
<path d="M63.1083 42.9828C62.9506 42.9828 62.7993 42.9201 62.6878 42.8086C62.5763 42.6971 62.5137 42.5459 62.5137 42.3882V41.2739C62.5137 41.1162 62.5763 40.965 62.6878 40.8535C62.7993 40.742 62.9506 40.6793 63.1083 40.6793C63.266 40.6793 63.4172 40.742 63.5287 40.8535C63.6402 40.965 63.7029 41.1162 63.7029 41.2739V42.3882C63.7029 42.5459 63.6402 42.6971 63.5287 42.8086C63.4172 42.9201 63.266 42.9828 63.1083 42.9828Z" fill="#EDFF4F"/>
<path d="M86.2975 49.4865H63.7029C63.3875 49.4865 63.085 49.3612 62.862 49.1382C62.639 48.9152 62.5137 48.6127 62.5137 48.2973V45.3612C62.5137 45.2035 62.5763 45.0523 62.6878 44.9408C62.7993 44.8293 62.9506 44.7666 63.1083 44.7666C63.266 44.7666 63.4172 44.8293 63.5287 44.9408C63.6402 45.0523 63.7029 45.2035 63.7029 45.3612V48.2973H86.2975V25.7027H63.7029V38.301C63.7029 38.4587 63.6402 38.6099 63.5287 38.7215C63.4172 38.833 63.266 38.8956 63.1083 38.8956C62.9506 38.8956 62.7993 38.833 62.6878 38.7215C62.5763 38.6099 62.5137 38.4587 62.5137 38.301V25.7027C62.5137 25.3873 62.639 25.0849 62.862 24.8619C63.085 24.6388 63.3875 24.5135 63.7029 24.5135H86.2975C86.6128 24.5135 86.9153 24.6388 87.1383 24.8619C87.3614 25.0849 87.4866 25.3873 87.4866 25.7027V48.2973C87.4866 48.6127 87.3614 48.9152 87.1383 49.1382C86.9153 49.3612 86.6128 49.4865 86.2975 49.4865Z" fill="#EDFF4F"/>
<path d="M85.702 22.1352C85.5443 22.1352 85.3931 22.0725 85.2816 21.961C85.1701 21.8495 85.1074 21.6983 85.1074 21.5406V16.7838C85.1074 16.6261 85.1701 16.4749 85.2816 16.3634C85.3931 16.2519 85.5443 16.1892 85.702 16.1892C85.8597 16.1892 86.011 16.2519 86.1225 16.3634C86.234 16.4749 86.2966 16.6261 86.2966 16.7838V21.5406C86.2966 21.6983 86.234 21.8495 86.1225 21.961C86.011 22.0725 85.8597 22.1352 85.702 22.1352Z" fill="#EDFF4F"/>
<path d="M81.4208 22.1352C81.2631 22.1352 81.1118 22.0725 81.0003 21.961C80.8888 21.8495 80.8262 21.6983 80.8262 21.5406V16.7838C80.8262 16.6261 80.8888 16.4749 81.0003 16.3634C81.1118 16.2519 81.2631 16.1892 81.4208 16.1892C81.5785 16.1892 81.7297 16.2519 81.8412 16.3634C81.9527 16.4749 82.0154 16.6261 82.0154 16.7838V21.5406C82.0154 21.6983 81.9527 21.8495 81.8412 21.961C81.7297 22.0725 81.5785 22.1352 81.4208 22.1352Z" fill="#EDFF4F"/>
<path d="M77.1415 22.1352C76.9838 22.1352 76.8325 22.0725 76.721 21.961C76.6095 21.8495 76.5469 21.6983 76.5469 21.5406V16.7838C76.5469 16.6261 76.6095 16.4749 76.721 16.3634C76.8325 16.2519 76.9838 16.1892 77.1415 16.1892C77.2992 16.1892 77.4504 16.2519 77.5619 16.3634C77.6734 16.4749 77.7361 16.6261 77.7361 16.7838V21.5406C77.7361 21.6983 77.6734 21.8495 77.5619 21.961C77.4504 22.0725 77.2992 22.1352 77.1415 22.1352Z" fill="#EDFF4F"/>
<path d="M72.8602 22.1352C72.7025 22.1352 72.5513 22.0725 72.4398 21.961C72.3283 21.8495 72.2656 21.6983 72.2656 21.5406V16.7838C72.2656 16.6261 72.3283 16.4749 72.4398 16.3634C72.5513 16.2519 72.7025 16.1892 72.8602 16.1892C73.0179 16.1892 73.1692 16.2519 73.2807 16.3634C73.3922 16.4749 73.4548 16.6261 73.4548 16.7838V21.5406C73.4548 21.6983 73.3922 21.8495 73.2807 21.961C73.1692 22.0725 73.0179 22.1352 72.8602 22.1352Z" fill="#EDFF4F"/>
<path d="M68.579 22.1352C68.4213 22.1352 68.27 22.0725 68.1585 21.961C68.047 21.8495 67.9844 21.6983 67.9844 21.5406V16.7838C67.9844 16.6261 68.047 16.4749 68.1585 16.3634C68.27 16.2519 68.4213 16.1892 68.579 16.1892C68.7367 16.1892 68.8879 16.2519 68.9994 16.3634C69.1109 16.4749 69.1736 16.6261 69.1736 16.7838V21.5406C69.1736 21.6983 69.1109 21.8495 68.9994 21.961C68.8879 22.0725 68.7367 22.1352 68.579 22.1352Z" fill="#EDFF4F"/>
<path d="M64.2977 22.1352C64.14 22.1352 63.9888 22.0725 63.8773 21.961C63.7658 21.8495 63.7031 21.6983 63.7031 21.5406V16.7838C63.7031 16.6261 63.7658 16.4749 63.8773 16.3634C63.9888 16.2519 64.14 16.1892 64.2977 16.1892C64.4554 16.1892 64.6067 16.2519 64.7182 16.3634C64.8297 16.4749 64.8923 16.6261 64.8923 16.7838V21.5406C64.8923 21.6983 64.8297 21.8495 64.7182 21.961C64.6067 22.0725 64.4554 22.1352 64.2977 22.1352Z" fill="#EDFF4F"/>
<path d="M85.702 57.8108C85.5443 57.8108 85.3931 57.7482 85.2816 57.6367C85.1701 57.5252 85.1074 57.3739 85.1074 57.2162V52.4595C85.1074 52.3018 85.1701 52.1505 85.2816 52.039C85.3931 51.9275 85.5443 51.8649 85.702 51.8649C85.8597 51.8649 86.011 51.9275 86.1225 52.039C86.234 52.1505 86.2966 52.3018 86.2966 52.4595V57.2162C86.2966 57.3739 86.234 57.5252 86.1225 57.6367C86.011 57.7482 85.8597 57.8108 85.702 57.8108Z" fill="#EDFF4F"/>
<path d="M81.4208 57.8108C81.2631 57.8108 81.1118 57.7482 81.0003 57.6367C80.8888 57.5252 80.8262 57.3739 80.8262 57.2162V52.4595C80.8262 52.3018 80.8888 52.1505 81.0003 52.039C81.1118 51.9275 81.2631 51.8649 81.4208 51.8649C81.5785 51.8649 81.7297 51.9275 81.8412 52.039C81.9527 52.1505 82.0154 52.3018 82.0154 52.4595V57.2162C82.0154 57.3739 81.9527 57.5252 81.8412 57.6367C81.7297 57.7482 81.5785 57.8108 81.4208 57.8108Z" fill="#EDFF4F"/>
<path d="M77.1415 57.8108C76.9838 57.8108 76.8325 57.7482 76.721 57.6367C76.6095 57.5252 76.5469 57.3739 76.5469 57.2162V52.4595C76.5469 52.3018 76.6095 52.1505 76.721 52.039C76.8325 51.9275 76.9838 51.8649 77.1415 51.8649C77.2992 51.8649 77.4504 51.9275 77.5619 52.039C77.6734 52.1505 77.7361 52.3018 77.7361 52.4595V57.2162C77.7361 57.3739 77.6734 57.5252 77.5619 57.6367C77.4504 57.7482 77.2992 57.8108 77.1415 57.8108Z" fill="#EDFF4F"/>
<path d="M72.8602 57.8108C72.7025 57.8108 72.5513 57.7482 72.4398 57.6367C72.3283 57.5252 72.2656 57.3739 72.2656 57.2162V52.4595C72.2656 52.3018 72.3283 52.1505 72.4398 52.039C72.5513 51.9275 72.7025 51.8649 72.8602 51.8649C73.0179 51.8649 73.1692 51.9275 73.2807 52.039C73.3922 52.1505 73.4548 52.3018 73.4548 52.4595V57.2162C73.4548 57.3739 73.3922 57.5252 73.2807 57.6367C73.1692 57.7482 73.0179 57.8108 72.8602 57.8108Z" fill="#EDFF4F"/>
<path d="M68.579 57.8108C68.4213 57.8108 68.27 57.7482 68.1585 57.6367C68.047 57.5252 67.9844 57.3739 67.9844 57.2162V52.4595C67.9844 52.3018 68.047 52.1505 68.1585 52.039C68.27 51.9275 68.4213 51.8649 68.579 51.8649C68.7367 51.8649 68.8879 51.9275 68.9994 52.039C69.1109 52.1505 69.1736 52.3018 69.1736 52.4595V57.2162C69.1736 57.3739 69.1109 57.5252 68.9994 57.6367C68.8879 57.7482 68.7367 57.8108 68.579 57.8108Z" fill="#EDFF4F"/>
<path d="M64.2977 57.8108C64.14 57.8108 63.9888 57.7482 63.8773 57.6367C63.7658 57.5252 63.7031 57.3739 63.7031 57.2162V52.4595C63.7031 52.3018 63.7658 52.1505 63.8773 52.039C63.9888 51.9275 64.14 51.8649 64.2977 51.8649C64.4554 51.8649 64.6067 51.9275 64.7182 52.039C64.8297 52.1505 64.8923 52.3018 64.8923 52.4595V57.2162C64.8923 57.3739 64.8297 57.5252 64.7182 57.6367C64.6067 57.7482 64.4554 57.8108 64.2977 57.8108Z" fill="#EDFF4F"/>
<path d="M95.2166 48.2973H90.4598C90.3021 48.2973 90.1509 48.2347 90.0394 48.1232C89.9279 48.0117 89.8652 47.8604 89.8652 47.7027C89.8652 47.5451 89.9279 47.3938 90.0394 47.2823C90.1509 47.1708 90.3021 47.1082 90.4598 47.1082H95.2166C95.3743 47.1082 95.5255 47.1708 95.637 47.2823C95.7485 47.3938 95.8112 47.5451 95.8112 47.7027C95.8112 47.8604 95.7485 48.0117 95.637 48.1232C95.5255 48.2347 95.3743 48.2973 95.2166 48.2973Z" fill="#EDFF4F"/>
<path d="M95.2166 44.0162H90.4598C90.3021 44.0162 90.1509 43.9536 90.0394 43.8421C89.9279 43.7306 89.8652 43.5793 89.8652 43.4216C89.8652 43.2639 89.9279 43.1127 90.0394 43.0012C90.1509 42.8897 90.3021 42.827 90.4598 42.827H95.2166C95.3743 42.827 95.5255 42.8897 95.637 43.0012C95.7485 43.1127 95.8112 43.2639 95.8112 43.4216C95.8112 43.5793 95.7485 43.7306 95.637 43.8421C95.5255 43.9536 95.3743 44.0162 95.2166 44.0162Z" fill="#EDFF4F"/>
<path d="M95.2166 39.7351H90.4598C90.3021 39.7351 90.1509 39.6724 90.0394 39.5609C89.9279 39.4494 89.8652 39.2982 89.8652 39.1405C89.8652 38.9828 89.9279 38.8316 90.0394 38.7201C90.1509 38.6085 90.3021 38.5459 90.4598 38.5459H95.2166C95.3743 38.5459 95.5255 38.6085 95.637 38.7201C95.7485 38.8316 95.8112 38.9828 95.8112 39.1405C95.8112 39.2982 95.7485 39.4494 95.637 39.5609C95.5255 39.6724 95.3743 39.7351 95.2166 39.7351Z" fill="#EDFF4F"/>
<path d="M95.2166 35.4541H90.4598C90.3021 35.4541 90.1509 35.3914 90.0394 35.2799C89.9279 35.1684 89.8652 35.0172 89.8652 34.8595C89.8652 34.7018 89.9279 34.5506 90.0394 34.439C90.1509 34.3275 90.3021 34.2649 90.4598 34.2649H95.2166C95.3743 34.2649 95.5255 34.3275 95.637 34.439C95.7485 34.5506 95.8112 34.7018 95.8112 34.8595C95.8112 35.0172 95.7485 35.1684 95.637 35.2799C95.5255 35.3914 95.3743 35.4541 95.2166 35.4541Z" fill="#EDFF4F"/>
<path d="M95.2166 31.173H90.4598C90.3021 31.173 90.1509 31.1103 90.0394 30.9988C89.9279 30.8873 89.8652 30.7361 89.8652 30.5784C89.8652 30.4207 89.9279 30.2694 90.0394 30.1579C90.1509 30.0464 90.3021 29.9838 90.4598 29.9838H95.2166C95.3743 29.9838 95.5255 30.0464 95.637 30.1579C95.7485 30.2694 95.8112 30.4207 95.8112 30.5784C95.8112 30.7361 95.7485 30.8873 95.637 30.9988C95.5255 31.1103 95.3743 31.173 95.2166 31.173Z" fill="#EDFF4F"/>
<path d="M95.2166 26.8919H90.4598C90.3021 26.8919 90.1509 26.8293 90.0394 26.7178C89.9279 26.6063 89.8652 26.455 89.8652 26.2974C89.8652 26.1397 89.9279 25.9884 90.0394 25.8769C90.1509 25.7654 90.3021 25.7028 90.4598 25.7028H95.2166C95.3743 25.7028 95.5255 25.7654 95.637 25.8769C95.7485 25.9884 95.8112 26.1397 95.8112 26.2974C95.8112 26.455 95.7485 26.6063 95.637 26.7178C95.5255 26.8293 95.3743 26.8919 95.2166 26.8919Z" fill="#EDFF4F"/>
<path d="M59.5408 48.2973H54.784C54.6264 48.2973 54.4751 48.2347 54.3636 48.1232C54.2521 48.0117 54.1895 47.8604 54.1895 47.7027C54.1895 47.5451 54.2521 47.3938 54.3636 47.2823C54.4751 47.1708 54.6264 47.1082 54.784 47.1082H59.5408C59.6985 47.1082 59.8497 47.1708 59.9612 47.2823C60.0728 47.3938 60.1354 47.5451 60.1354 47.7027C60.1354 47.8604 60.0728 48.0117 59.9612 48.1232C59.8497 48.2347 59.6985 48.2973 59.5408 48.2973Z" fill="#EDFF4F"/>
<path d="M59.5408 44.0162H54.784C54.6264 44.0162 54.4751 43.9536 54.3636 43.8421C54.2521 43.7306 54.1895 43.5793 54.1895 43.4216C54.1895 43.2639 54.2521 43.1127 54.3636 43.0012C54.4751 42.8897 54.6264 42.827 54.784 42.827H59.5408C59.6985 42.827 59.8497 42.8897 59.9612 43.0012C60.0728 43.1127 60.1354 43.2639 60.1354 43.4216C60.1354 43.5793 60.0728 43.7306 59.9612 43.8421C59.8497 43.9536 59.6985 44.0162 59.5408 44.0162Z" fill="#EDFF4F"/>
<path d="M59.5408 39.7351H54.784C54.6264 39.7351 54.4751 39.6724 54.3636 39.5609C54.2521 39.4494 54.1895 39.2982 54.1895 39.1405C54.1895 38.9828 54.2521 38.8316 54.3636 38.7201C54.4751 38.6085 54.6264 38.5459 54.784 38.5459H59.5408C59.6985 38.5459 59.8497 38.6085 59.9612 38.7201C60.0728 38.8316 60.1354 38.9828 60.1354 39.1405C60.1354 39.2982 60.0728 39.4494 59.9612 39.5609C59.8497 39.6724 59.6985 39.7351 59.5408 39.7351Z" fill="#EDFF4F"/>
<path d="M59.5408 35.4541H54.784C54.6264 35.4541 54.4751 35.3914 54.3636 35.2799C54.2521 35.1684 54.1895 35.0172 54.1895 34.8595C54.1895 34.7018 54.2521 34.5506 54.3636 34.439C54.4751 34.3275 54.6264 34.2649 54.784 34.2649H59.5408C59.6985 34.2649 59.8497 34.3275 59.9612 34.439C60.0728 34.5506 60.1354 34.7018 60.1354 34.8595C60.1354 35.0172 60.0728 35.1684 59.9612 35.2799C59.8497 35.3914 59.6985 35.4541 59.5408 35.4541Z" fill="#EDFF4F"/>
<path d="M59.5408 31.173H54.784C54.6264 31.173 54.4751 31.1103 54.3636 30.9988C54.2521 30.8873 54.1895 30.7361 54.1895 30.5784C54.1895 30.4207 54.2521 30.2694 54.3636 30.1579C54.4751 30.0464 54.6264 29.9838 54.784 29.9838H59.5408C59.6985 29.9838 59.8497 30.0464 59.9612 30.1579C60.0728 30.2694 60.1354 30.4207 60.1354 30.5784C60.1354 30.7361 60.0728 30.8873 59.9612 30.9988C59.8497 31.1103 59.6985 31.173 59.5408 31.173Z" fill="#EDFF4F"/>
<path d="M59.5408 26.8919H54.784C54.6264 26.8919 54.4751 26.8293 54.3636 26.7178C54.2521 26.6063 54.1895 26.455 54.1895 26.2974C54.1895 26.1397 54.2521 25.9884 54.3636 25.8769C54.4751 25.7654 54.6264 25.7028 54.784 25.7028H59.5408C59.6985 25.7028 59.8497 25.7654 59.9612 25.8769C60.0728 25.9884 60.1354 26.1397 60.1354 26.2974C60.1354 26.455 60.0728 26.6063 59.9612 26.7178C59.8497 26.8293 59.6985 26.8919 59.5408 26.8919Z" fill="#EDFF4F"/>
<path d="M70.838 30.4595H63.1083C62.9506 30.4595 62.7993 30.3968 62.6878 30.2853C62.5763 30.1738 62.5137 30.0226 62.5137 29.8649C62.5137 29.7072 62.5763 29.5559 62.6878 29.4444C62.7993 29.3329 62.9506 29.2703 63.1083 29.2703H70.838C70.9957 29.2703 71.1469 29.3329 71.2584 29.4444C71.3699 29.5559 71.4326 29.7072 71.4326 29.8649C71.4326 30.0226 71.3699 30.1738 71.2584 30.2853C71.1469 30.3968 70.9957 30.4595 70.838 30.4595Z" fill="#EDFF4F"/>
<path d="M72.4923 32.113C72.0477 32.113 71.613 31.9812 71.2433 31.7341C70.8736 31.4871 70.5854 31.136 70.4153 30.7252C70.2451 30.3144 70.2006 29.8624 70.2873 29.4263C70.3741 28.9902 70.5882 28.5896 70.9026 28.2752C71.217 27.9608 71.6176 27.7466 72.0537 27.6599C72.4898 27.5732 72.9418 27.6177 73.3526 27.7878C73.7634 27.958 74.1146 28.2461 74.3616 28.6159C74.6086 28.9856 74.7405 29.4202 74.7405 29.8649C74.7398 30.4609 74.5028 31.0324 74.0813 31.4539C73.6598 31.8753 73.0884 32.1124 72.4923 32.113ZM72.4923 28.8059C72.2829 28.8059 72.0781 28.868 71.904 28.9844C71.7298 29.1007 71.5941 29.2661 71.5139 29.4596C71.4338 29.6531 71.4128 29.866 71.4537 30.0715C71.4945 30.2769 71.5954 30.4656 71.7435 30.6137C71.8916 30.7618 72.0803 30.8626 72.2857 30.9035C72.4911 30.9443 72.7041 30.9234 72.8976 30.8432C73.0911 30.7631 73.2564 30.6273 73.3728 30.4532C73.4892 30.279 73.5513 30.0743 73.5513 29.8649C73.551 29.5841 73.4393 29.3149 73.2408 29.1164C73.0422 28.9179 72.7731 28.8062 72.4923 28.8059Z" fill="#EDFF4F"/>
<path d="M86.8912 42.9459H81.2782C81.1205 42.9459 80.9693 42.8833 80.8577 42.7718C80.7462 42.6602 80.6836 42.509 80.6836 42.3513C80.6836 42.1936 80.7462 42.0424 80.8577 41.9309C80.9693 41.8194 81.1205 41.7567 81.2782 41.7567H86.8912C87.0489 41.7567 87.2001 41.8194 87.3116 41.9309C87.4231 42.0424 87.4858 42.1936 87.4858 42.3513C87.4858 42.509 87.4231 42.6602 87.3116 42.7718C87.2001 42.8833 87.0489 42.9459 86.8912 42.9459Z" fill="#EDFF4F"/>
<path d="M79.6271 44.5995C79.1824 44.5995 78.7478 44.4676 78.3781 44.2206C78.0083 43.9736 77.7202 43.6224 77.55 43.2116C77.3799 42.8008 77.3354 42.3488 77.4221 41.9127C77.5089 41.4766 77.723 41.076 78.0374 40.7616C78.3518 40.4472 78.7524 40.2331 79.1885 40.1463C79.6246 40.0596 80.0766 40.1041 80.4874 40.2743C80.8982 40.4444 81.2493 40.7326 81.4963 41.1023C81.7434 41.472 81.8752 41.9067 81.8752 42.3513C81.8746 42.9474 81.6375 43.5188 81.2161 43.9403C80.7946 44.3618 80.2231 44.5988 79.6271 44.5995ZM79.6271 41.2923C79.4176 41.2923 79.2129 41.3544 79.0387 41.4708C78.8646 41.5872 78.7289 41.7526 78.6487 41.9461C78.5686 42.1396 78.5476 42.3525 78.5884 42.5579C78.6293 42.7633 78.7302 42.952 78.8783 43.1001C79.0264 43.2482 79.2151 43.3491 79.4205 43.3899C79.6259 43.4308 79.8388 43.4098 80.0323 43.3297C80.2258 43.2495 80.3912 43.1138 80.5076 42.9396C80.6239 42.7655 80.686 42.5608 80.686 42.3513C80.6857 42.0706 80.5741 41.8014 80.3755 41.6029C80.177 41.4043 79.9078 41.2927 79.6271 41.2923Z" fill="#EDFF4F"/>
<path d="M69.5177 37.4691C69.0731 37.4691 68.6384 37.3373 68.2687 37.0902C67.899 36.8432 67.6108 36.4921 67.4407 36.0813C67.2705 35.6705 67.226 35.2184 67.3127 34.7823C67.3995 34.3462 67.6136 33.9457 67.928 33.6313C68.2424 33.3168 68.643 33.1027 69.0791 33.016C69.5152 32.9292 69.9672 32.9738 70.378 33.1439C70.7888 33.3141 71.1399 33.6022 71.387 33.9719C71.634 34.3416 71.7659 34.7763 71.7659 35.2209C71.7652 35.817 71.5282 36.3885 71.1067 36.8099C70.6852 37.2314 70.1138 37.4685 69.5177 37.4691ZM69.5177 34.162C69.3082 34.162 69.1035 34.2241 68.9294 34.3404C68.7552 34.4568 68.6195 34.6222 68.5393 34.8157C68.4592 35.0092 68.4382 35.2221 68.4791 35.4275C68.5199 35.633 68.6208 35.8216 68.7689 35.9697C68.917 36.1178 69.1057 36.2187 69.3111 36.2596C69.5165 36.3004 69.7294 36.2795 69.9229 36.1993C70.1164 36.1192 70.2818 35.9834 70.3982 35.8093C70.5146 35.6351 70.5767 35.4304 70.5767 35.2209C70.5765 34.9401 70.4649 34.6709 70.2663 34.4723C70.0678 34.2737 69.7985 34.1621 69.5177 34.162Z" fill="#EDFF4F"/>
<path d="M67.865 35.8108H63.1083C62.9506 35.8108 62.7993 35.7481 62.6878 35.6366C62.5763 35.5251 62.5137 35.3739 62.5137 35.2162C62.5137 35.0585 62.5763 34.9072 62.6878 34.7957C62.7993 34.6842 62.9506 34.6216 63.1083 34.6216H67.865C68.0227 34.6216 68.174 34.6842 68.2855 34.7957C68.397 34.9072 68.4596 35.0585 68.4596 35.2162C68.4596 35.3739 68.397 35.5251 68.2855 35.6366C68.174 35.7481 68.0227 35.8108 67.865 35.8108Z" fill="#EDFF4F"/>
<path d="M68.1631 45.0639C67.7515 45.0639 67.3492 44.9418 67.0069 44.7132C66.6647 44.4845 66.398 44.1595 66.2404 43.7792C66.0829 43.3989 66.0417 42.9805 66.122 42.5768C66.2023 42.1731 66.4005 41.8023 66.6916 41.5113C66.9826 41.2202 67.3534 41.022 67.7571 40.9417C68.1608 40.8614 68.5792 40.9026 68.9595 41.0601C69.3398 41.2177 69.6648 41.4844 69.8935 41.8266C70.1221 42.1689 70.2442 42.5712 70.2442 42.9828C70.2442 43.5348 70.0249 44.0641 69.6347 44.4544C69.2444 44.8446 68.715 45.0639 68.1631 45.0639ZM68.1631 42.0909C67.9867 42.0909 67.8143 42.1432 67.6676 42.2412C67.5209 42.3392 67.4066 42.4785 67.3391 42.6415C67.2716 42.8045 67.2539 42.9838 67.2884 43.1568C67.3228 43.3298 67.4077 43.4887 67.5325 43.6135C67.6572 43.7382 67.8161 43.8232 67.9891 43.8576C68.1621 43.892 68.3415 43.8743 68.5044 43.8068C68.6674 43.7393 68.8067 43.625 68.9047 43.4783C69.0027 43.3317 69.055 43.1592 69.055 42.9828C69.055 42.7463 68.961 42.5194 68.7938 42.3522C68.6265 42.1849 68.3997 42.0909 68.1631 42.0909Z" fill="#EDFF4F"/>
<path d="M70.7073 49.4865C70.5496 49.4865 70.3984 49.4239 70.2869 49.3123C70.1754 49.2008 70.1127 49.0496 70.1127 48.8919V45.4516L68.9354 44.2761C68.8786 44.2212 68.8333 44.1556 68.8022 44.0831C68.771 44.0105 68.7546 43.9325 68.7539 43.8535C68.7532 43.7746 68.7683 43.6963 68.7982 43.6232C68.8281 43.5502 68.8722 43.4838 68.9281 43.4279C68.9839 43.3721 69.0503 43.328 69.1233 43.2981C69.1964 43.2682 69.2747 43.2531 69.3537 43.2538C69.4326 43.2545 69.5106 43.2709 69.5832 43.3021C69.6557 43.3332 69.7213 43.3785 69.7762 43.4353L71.1259 44.785C71.2374 44.8965 71.3001 45.0477 71.3001 45.2054V48.8919C71.3001 49.0493 71.2377 49.2003 71.1266 49.3117C71.0155 49.4232 70.8647 49.486 70.7073 49.4865Z" fill="#EDFF4F"/>
<path d="M79.794 33.3301C79.3824 33.3301 78.98 33.2081 78.6378 32.9794C78.2956 32.7507 78.0288 32.4257 77.8713 32.0454C77.7138 31.6652 77.6726 31.2467 77.7529 30.8431C77.8332 30.4394 78.0314 30.0685 78.3224 29.7775C78.6135 29.4865 78.9843 29.2883 79.388 29.208C79.7917 29.1277 80.2101 29.1689 80.5904 29.3264C80.9706 29.4839 81.2957 29.7506 81.5243 30.0929C81.753 30.4351 81.8751 30.8375 81.8751 31.249C81.8743 31.8007 81.6548 32.3296 81.2646 32.7197C80.8745 33.1098 80.3457 33.3293 79.794 33.3301ZM79.794 30.3572C79.6176 30.3572 79.4451 30.4095 79.2985 30.5075C79.1518 30.6055 79.0375 30.7448 78.97 30.9077C78.9025 31.0707 78.8848 31.25 78.9192 31.4231C78.9536 31.5961 79.0386 31.755 79.1633 31.8797C79.288 32.0044 79.447 32.0894 79.62 32.1238C79.793 32.1582 79.9723 32.1406 80.1353 32.0731C80.2983 32.0055 80.4376 31.8912 80.5356 31.7446C80.6336 31.5979 80.6859 31.4254 80.6859 31.249C80.6859 31.0125 80.5919 30.7856 80.4246 30.6184C80.2574 30.4511 80.0305 30.3572 79.794 30.3572Z" fill="#EDFF4F"/>
<path d="M80.6667 30.6479C80.5492 30.6479 80.4342 30.613 80.3365 30.5477C80.2387 30.4823 80.1625 30.3895 80.1175 30.2809C80.0725 30.1722 80.0608 30.0527 80.0837 29.9374C80.1066 29.822 80.1632 29.7161 80.2464 29.633L81.5961 28.2832C81.7076 28.1717 81.8588 28.109 82.0165 28.109H86.8921C87.0498 28.109 87.2011 28.1717 87.3126 28.2832C87.4241 28.3947 87.4867 28.5459 87.4867 28.7036C87.4867 28.8613 87.4241 29.0125 87.3126 29.124C87.2011 29.2356 87.0498 29.2982 86.8921 29.2982H82.2626L81.0871 30.4737C81.032 30.5291 80.9665 30.573 80.8944 30.6029C80.8222 30.6328 80.7448 30.6481 80.6667 30.6479Z" fill="#EDFF4F"/>
<path d="M79.9229 39.0293C79.5113 39.0293 79.1089 38.9073 78.7667 38.6786C78.4245 38.45 78.1577 38.1249 78.0002 37.7447C77.8427 37.3644 77.8015 36.946 77.8818 36.5423C77.9621 36.1386 78.1603 35.7678 78.4513 35.4767C78.7424 35.1857 79.1132 34.9875 79.5169 34.9072C79.9206 34.8269 80.339 34.8681 80.7193 35.0256C81.0995 35.1831 81.4246 35.4499 81.6532 35.7921C81.8819 36.1343 82.004 36.5367 82.004 36.9483C82.004 37.5002 81.7847 38.0295 81.3944 38.4198C81.0041 38.8101 80.4748 39.0293 79.9229 39.0293ZM79.9229 36.0564C79.7465 36.0564 79.574 36.1087 79.4274 36.2067C79.2807 36.3047 79.1664 36.444 79.0989 36.607C79.0314 36.7699 79.0137 36.9493 79.0481 37.1223C79.0825 37.2953 79.1675 37.4542 79.2922 37.5789C79.417 37.7037 79.5759 37.7886 79.7489 37.823C79.9219 37.8574 80.1012 37.8398 80.2642 37.7723C80.4272 37.7048 80.5665 37.5905 80.6645 37.4438C80.7625 37.2971 80.8148 37.1247 80.8148 36.9483C80.8148 36.7117 80.7208 36.4849 80.5535 36.3176C80.3863 36.1503 80.1594 36.0564 79.9229 36.0564Z" fill="#EDFF4F"/>
<path d="M80.7976 36.3459C80.68 36.3459 80.5651 36.311 80.4673 36.2457C80.3696 36.1803 80.2934 36.0875 80.2484 35.9789C80.2034 35.8702 80.1916 35.7507 80.2145 35.6354C80.2375 35.52 80.2941 35.4141 80.3772 35.331L81.7269 33.9812C81.8384 33.8697 81.9896 33.807 82.1473 33.807H86.8922C87.0499 33.807 87.2011 33.8697 87.3126 33.9812C87.4241 34.0927 87.4868 34.2439 87.4868 34.4016C87.4868 34.5593 87.4241 34.7105 87.3126 34.822C87.2011 34.9336 87.0499 34.9962 86.8922 34.9962H82.3935L81.218 36.1717C81.1065 36.2832 80.9553 36.3459 80.7976 36.3459Z" fill="#EDFF4F"/>
<path d="M73.6974 41.6266C73.2527 41.6266 72.8181 41.4947 72.4484 41.2477C72.0787 41.0007 71.7905 40.6495 71.6204 40.2387C71.4502 39.8279 71.4057 39.3759 71.4924 38.9398C71.5792 38.5037 71.7933 38.1031 72.1077 37.7887C72.4221 37.4743 72.8227 37.2602 73.2588 37.1734C73.6949 37.0867 74.1469 37.1312 74.5577 37.3014C74.9685 37.4715 75.3196 37.7597 75.5667 38.1294C75.8137 38.4991 75.9455 38.9338 75.9455 39.3784C75.9449 39.9745 75.7079 40.5459 75.2864 40.9674C74.8649 41.3889 74.2934 41.6259 73.6974 41.6266ZM73.6974 38.3194C73.4879 38.3194 73.2832 38.3815 73.109 38.4979C72.9349 38.6143 72.7992 38.7797 72.719 38.9732C72.6389 39.1667 72.6179 39.3796 72.6588 39.585C72.6996 39.7904 72.8005 39.9791 72.9486 40.1272C73.0967 40.2753 73.2854 40.3762 73.4908 40.417C73.6962 40.4579 73.9091 40.4369 74.1026 40.3568C74.2961 40.2766 74.4615 40.1409 74.5779 39.9667C74.6942 39.7926 74.7564 39.5879 74.7564 39.3784C74.756 39.0977 74.6444 38.8285 74.4458 38.63C74.2473 38.4314 73.9781 38.3198 73.6974 38.3194Z" fill="#EDFF4F"/>
<path d="M75.5947 49.4865C75.437 49.4865 75.2858 49.4239 75.1743 49.3123C75.0627 49.2008 75.0001 49.0496 75.0001 48.8919V45.9154L73.2758 44.191C73.1643 44.0796 73.1016 43.9283 73.1016 43.7707V41.0314C73.1016 40.8737 73.1642 40.7224 73.2757 40.6109C73.3872 40.4994 73.5385 40.4368 73.6962 40.4368C73.8539 40.4368 74.0051 40.4994 74.1166 40.6109C74.2281 40.7224 74.2908 40.8737 74.2908 41.0314V43.5287L76.0151 45.253C76.1256 45.3634 76.1882 45.513 76.1893 45.6692V48.8919C76.1893 49.0496 76.1266 49.2008 76.0151 49.3123C75.9036 49.4239 75.7524 49.4865 75.5947 49.4865Z" fill="#EDFF4F"/>
</svg>
