<svg width="78" height="78" viewBox="0 0 78 78" fill="none" xmlns="http://www.w3.org/2000/svg">
<circle cx="39" cy="39" r="39" fill="white"/>
<path d="M16.0586 41.2941L24.088 22.9412H53.9115L61.9409 41.2941L38.9998 64.2353L16.0586 41.2941Z" fill="#26A17B"/>
<path d="M52.5138 41.2941C52.5138 41.6263 52.2385 42.0143 51.5549 42.4183C50.888 42.8125 49.9064 43.1761 48.6716 43.4848C46.2057 44.1013 42.7858 44.4853 38.9991 44.4853C35.2123 44.4853 31.7925 44.1013 29.3266 43.4848C28.0917 43.1761 27.1101 42.8125 26.4433 42.4183C25.7597 42.0143 25.4844 41.6263 25.4844 41.2941C25.4844 40.9619 25.7597 40.5739 26.4433 40.1698C27.1101 39.7757 28.0917 39.4121 29.3266 39.1033C31.7925 38.4869 35.2123 38.1029 38.9991 38.1029C42.7858 38.1029 46.2057 38.4869 48.6716 39.1033C49.9064 39.4121 50.888 39.7757 51.5549 40.1698C52.2385 40.5739 52.5138 40.9619 52.5138 41.2941Z" stroke="white" stroke-width="0.5"/>
<path d="M27.5293 34.4118V28.6765H50.4705V34.4118H42.4411V42.4412H35.5587V34.4118H27.5293Z" fill="white"/>
<path d="M35.5587 56.2059V45.8824H42.4411V56.2059H35.5587Z" fill="white"/>
</svg>
