<svg width="122" height="26" viewBox="0 0 122 26" fill="none" xmlns="http://www.w3.org/2000/svg">
<path d="M43.54 15.1C43.54 17.42 41.28 19.3 37.54 19.3C33.78 19.3 30.86 17.46 30.66 14.7H33.58C33.88 16.04 35.46 16.9 37.5 16.9C39.4 16.9 40.74 16.1 40.74 15.02C40.74 11.68 30.84 15.08 30.84 8.68C30.84 6.22 33.44 4.7 36.88 4.7C40.52 4.7 43.08 6.44 43.3 8.98H40.4C40.16 7.9 38.68 7.02 36.88 7.02C34.92 7.02 33.64 7.76 33.64 8.76C33.64 11.86 43.54 8.62 43.54 15.1ZM47.7178 14.02C47.7178 15.62 49.1378 16.74 51.0378 16.74C52.5578 16.74 53.6778 16.14 54.1378 15.1H57.0378C56.5178 17.64 54.1378 19.3 51.0378 19.3C47.5378 19.3 44.9178 17.04 44.9178 14.02C44.9178 10.96 47.5178 8.7 51.0378 8.7C54.1178 8.7 56.4778 10.32 57.0178 12.88H54.1178C53.6578 11.86 52.5378 11.24 51.0378 11.24C49.1178 11.24 47.7178 12.4 47.7178 14.02ZM66.4953 8.7V11.66C63.5153 11.66 61.7753 13.36 61.7753 16.16V19H58.9753V9H61.4753L61.7753 11.6C62.6953 9.82 64.3553 8.7 66.4953 8.7ZM80.1388 19H77.6588L77.3788 17.68C76.3588 18.7 74.8988 19.3 73.1988 19.3C69.8788 19.3 67.3787 17.04 67.3787 14.02C67.3787 10.96 69.8588 8.7 73.1988 8.7C74.8788 8.7 76.3588 9.28 77.3788 10.32L77.6588 9H80.1388V19ZM70.1788 14.02C70.1788 15.64 71.6988 16.82 73.7988 16.82C75.9188 16.82 77.3388 15.68 77.3388 14.02C77.3388 12.34 75.8988 11.16 73.7988 11.16C71.6988 11.16 70.1788 12.36 70.1788 14.02ZM82.7058 9H85.2058L85.4658 10.28C86.4858 9.28 87.9458 8.7 89.6258 8.7C92.9458 8.7 95.4458 10.96 95.4458 13.98C95.4458 17.04 92.9658 19.3 89.6258 19.3C87.9658 19.3 86.5258 18.74 85.5058 17.74V23H82.7058V9ZM92.6458 13.98C92.6458 12.34 91.1258 11.16 89.0258 11.16C86.9258 11.16 85.5058 12.32 85.5058 13.98C85.5058 15.66 86.9258 16.82 89.0258 16.82C91.1658 16.82 92.6458 15.62 92.6458 13.98ZM108.753 14.7H99.6728C99.9728 16.14 101.253 17.1 102.933 17.1C104.133 17.1 105.093 16.66 105.613 15.94H108.453C107.693 17.98 105.553 19.3 102.813 19.3C99.3728 19.3 96.7928 17.04 96.7928 14.02C96.7928 10.96 99.3528 8.7 102.813 8.7C106.233 8.7 108.793 10.84 108.793 14.02C108.793 14.24 108.793 14.48 108.753 14.7ZM99.6728 13.3H105.913C105.633 11.88 104.453 10.96 102.813 10.96C101.193 10.96 99.9728 11.9 99.6728 13.3ZM116.879 13.94L121.059 19H117.599L115.159 16.04L112.719 19H109.199L113.399 13.94L109.299 9H112.799L115.139 11.84L117.499 9H120.959L116.879 13.94Z" fill="#EDFF4F"/>
<g clip-path="url(#clip0_84_13747)">
<path d="M1.34961 22.342C1.47388 22.7349 1.82349 23 2.21777 23H2.67554C3.18158 23 3.59106 22.5695 3.59106 22.0374V17.1602H0.132812L1.34961 22.342Z" fill="#EDFF4F"/>
<path d="M16.4102 17.1602V22.0374C16.4102 22.5695 16.8196 23 17.3257 23H17.7834C18.1777 23 18.5273 22.7349 18.6516 22.342L19.8684 17.1602H16.4102Z" fill="#EDFF4F"/>
<path d="M7.25293 -0.231079V3.68354H6.3374C5.83136 3.68354 5.42188 4.11409 5.42188 4.64615V7.53399H14.5771V4.64615C14.5771 4.11409 14.1677 3.68354 13.6616 3.68354H12.7461V-0.231079H7.25293Z" fill="#EDFF4F"/>
<path d="M9.54254 23H10.4581C10.906 23 11.2878 22.6597 11.3611 22.1953L12.1491 17.1602H7.85156L8.63959 22.1953C8.71283 22.6597 9.0946 23 9.54254 23Z" fill="#EDFF4F"/>
<path d="M8.16992 9.45923H11.832V15.2349H8.16992V9.45923Z" fill="#EDFF4F"/>
<path d="M13.6621 13.3097H16.4087V15.2349H20.0708V12.3471C20.0708 12.0914 19.9742 11.847 19.8026 11.6665L17.9715 9.74127C17.7999 9.56075 17.5674 9.45923 17.3242 9.45923H13.6621V13.3097Z" fill="#EDFF4F"/>
<path d="M3.5918 13.3097H6.33838V9.45923H2.67627C2.43311 9.45923 2.20062 9.56075 2.02899 9.74127L0.197937 11.6665C0.0262449 11.847 -0.0703125 12.0914 -0.0703125 12.3471V15.2349H3.5918V13.3097Z" fill="#EDFF4F"/>
</g>
<defs>
<clipPath id="clip0_84_13747">
<rect width="20" height="23" fill="white"/>
</clipPath>
</defs>
</svg>
